<svg xmlns="http://www.w3.org/2000/svg" xmlns:xlink="http://www.w3.org/1999/xlink" viewBox="0,0,256,256" width="50px" height="50px" fill-rule="nonzero"><g fill="#000000" fill-rule="nonzero" stroke="none" stroke-width="1" stroke-linecap="butt" stroke-linejoin="miter" stroke-miterlimit="10" stroke-dasharray="" stroke-dashoffset="0" font-family="none" font-weight="none" font-size="none" text-anchor="none" style="mix-blend-mode: normal"><g transform="scale(5.12,5.12)"><path d="M34.56445,3.97656c-0.77965,-0.02666 -1.59589,0.1083 -2.41406,0.37305c-1.63634,0.5295 -3.3496,1.56342 -5.10937,2.99414c-0.69344,0.56378 -1.39357,1.20804 -2.0957,1.89258c-0.68161,-0.66189 -1.362,-1.28621 -2.03516,-1.83398c-1.75846,-1.43092 -3.4707,-2.46411 -5.10352,-2.99414c-0.81641,-0.26502 -1.62948,-0.40241 -2.40625,-0.37695c-0.77677,0.02546 -1.51623,0.21292 -2.18359,0.59766c-0.00053,0.00027 -0.00351,0.00177 -0.00391,0.00195c-0.00073,0.00037 -0.00781,0.0039 -0.00781,0.00391c-0.00002,0.00001 -0.01035,0.00869 -0.01172,0.00977c-1.32222,0.77217 -2.11413,2.18003 -2.4707,3.84961c-0.35844,1.67833 -0.322,3.67618 0.03711,5.91406c0.14382,0.89624 0.35428,1.84023 0.60156,2.80664c-0.79575,0.23857 -1.56732,0.49069 -2.28125,0.76953c-2.0721,0.80931 -3.78663,1.77754 -5.03516,2.92969c-1.24853,1.15215 -2.05469,2.55049 -2.05469,4.08594c0,1.53545 0.80616,2.93379 2.05469,4.08594c1.24852,1.15215 2.96306,2.12037 5.03516,2.92969c0.70514,0.27541 1.46694,0.52362 2.25195,0.75977c-0.24795,0.96755 -0.45906,1.91305 -0.60351,2.81055c-0.36061,2.24046 -0.4009,4.24053 -0.04297,5.92383c0.35793,1.6833 1.15777,3.10534 2.49805,3.88086c1.34003,0.77557 2.96919,0.75995 4.60547,0.23047c1.63628,-0.52948 3.34954,-1.56154 5.10938,-2.99219c0.68706,-0.55854 1.38247,-1.19562 2.07812,-1.87305c0.69386,0.67559 1.38716,1.31167 2.07227,1.86914c1.75852,1.43092 3.46862,2.46216 5.10156,2.99219c1.63072,0.52931 3.25205,0.54746 4.58594,-0.21875l0.00195,-0.00195c0.0015,-0.00081 0.00251,0.0008 0.00391,0l0.00391,-0.00195l0.00195,-0.00195l0.00391,-0.00195l0.02344,-0.01367l0.08203,-0.04687l0.0332,-0.03516c1.24398,-0.78688 2.00104,-2.14787 2.3457,-3.76172c0.35844,-1.67833 0.32004,-3.67618 -0.03906,-5.91406c-0.14451,-0.90052 -0.35651,-1.84898 -0.60547,-2.82031c0.81278,-0.24238 1.60029,-0.49893 2.32813,-0.7832c2.0721,-0.80931 3.78663,-1.77754 5.03516,-2.92969c1.24853,-1.15215 2.05469,-2.55049 2.05469,-4.08594c0,-1.53545 -0.80616,-2.93379 -2.05469,-4.08594c-1.24853,-1.15215 -2.96306,-2.12037 -5.03516,-2.92969c-0.72432,-0.2829 -1.50793,-0.53787 -2.31641,-0.7793c0.24936,-0.97118 0.46246,-1.91966 0.60742,-2.82031c0.36061,-2.24046 0.4009,-4.24053 0.04297,-5.92383c-0.35788,-1.68334 -1.15777,-3.10534 -2.49805,-3.88086c-0.67011,-0.38774 -1.41176,-0.57686 -2.19141,-0.60352zM34.4707,6.00977c0.48897,0.01385 0.90678,0.13138 1.26367,0.33789c0.71372,0.41298 1.24048,1.21559 1.52148,2.53711c0.28101,1.32152 0.2726,3.10599 -0.06055,5.17578c-0.13312,0.82708 -0.33072,1.71036 -0.56445,2.61914c-1.92901,-0.45898 -4.0314,-0.80536 -6.26562,-1.01953c-1.29839,-1.83655 -2.64149,-3.49934 -3.99414,-4.96094c0.66119,-0.64589 1.31798,-1.25034 1.95898,-1.77148c1.62547,-1.32153 3.16537,-2.21737 4.44922,-2.63281c0.64193,-0.20772 1.20244,-0.299 1.69141,-0.28516zM15.49023,6.02344c0.49247,-0.01332 1.05505,0.078 1.69922,0.28711c1.28834,0.41822 2.83182,1.31849 4.45898,2.64258c0.62255,0.50659 1.25896,1.09271 1.90039,1.7168c-1.36085,1.47248 -2.7105,3.14872 -4.01562,5c-2.22505,0.21765 -4.31843,0.56656 -6.23828,1.02734c-0.23193,-0.90491 -0.42835,-1.78357 -0.56055,-2.60742c-0.33227,-2.07062 -0.33936,-3.85589 -0.05664,-5.17969c0.28272,-1.3238 0.81246,-2.12941 1.5332,-2.54492l0.00391,-0.00195c0.36039,-0.20776 0.78292,-0.32652 1.27539,-0.33984zM24.97656,12.13867c0.92782,1.00967 1.85819,2.11994 2.77539,3.33203c-0.90408,-0.04309 -1.81838,-0.07227 -2.75195,-0.07226c-0.94983,0 -1.87959,0.02963 -2.79883,0.07422c0.91735,-1.21357 1.84732,-2.32293 2.77539,-3.33398zM25,17.41602c1.46323,0 2.89109,0.06094 4.27148,0.16992c0.78474,1.15042 1.55215,2.36163 2.28711,3.63477c0.72468,1.25532 1.38152,2.50838 1.97852,3.74609c-0.6048,1.25704 -1.27328,2.52944 -2.00977,3.80469c-0.00379,0.00645 -0.00613,0.01126 -0.00977,0.01758c-0.73396,1.27076 -1.49948,2.48078 -2.2832,3.62891c-1.36904,0.10711 -2.78409,0.16602 -4.23437,0.16602c-1.48566,0 -2.93591,-0.06158 -4.33594,-0.17383c-0.77753,-1.14113 -1.53725,-2.34179 -2.26562,-3.60352c-0.73302,-1.26977 -1.39764,-2.53731 -2,-3.78906c0.60389,-1.25614 1.27039,-2.52832 2.00586,-3.80273l0.00195,-0.00195c-0.0097,0.01628 -0.01234,0.01993 0.00781,-0.01367l0.00391,-0.00781l0.00391,-0.00781c0.7271,-1.25898 1.48567,-2.45691 2.26172,-3.5957c1.39407,-0.11125 2.83756,-0.17187 4.31641,-0.17187zM31.84766,17.85938c1.49344,0.19595 2.90508,0.45406 4.22461,0.76367c-0.40659,1.28494 -0.89453,2.62127 -1.47461,3.99414c-0.41327,-0.79664 -0.84423,-1.59547 -1.30664,-2.39648c-0.46913,-0.8126 -0.95288,-1.59474 -1.44336,-2.36133zM18.05078,17.87305c-0.47434,0.74351 -0.94218,1.50242 -1.39648,2.28906l-0.00195,0.00195l-0.00391,0.00586l-0.00586,0.00781c-0.47021,0.81419 -0.9067,1.62584 -1.32617,2.43555c-0.57478,-1.36467 -1.06165,-2.69322 -1.46484,-3.9707c1.31107,-0.31054 2.71454,-0.57146 4.19922,-0.76953zM38.05078,19.14844c0.75028,0.22393 1.47384,0.45865 2.13477,0.7168c1.91015,0.74606 3.4211,1.62951 4.40039,2.5332c0.97929,0.90369 1.4043,1.76551 1.4043,2.60156c0,0.83605 -0.42501,1.69787 -1.4043,2.60156c-0.97929,0.90369 -2.49024,1.78714 -4.40039,2.5332c-0.66438,0.25949 -1.39185,0.4958 -2.14648,0.7207c-0.5862,-1.87367 -1.34725,-3.83536 -2.27344,-5.84375c0.93088,-2.01538 1.69609,-3.98283 2.28516,-5.86328zM11.91406,19.1582c0.58181,1.86191 1.33611,3.81112 2.25391,5.80664c-0.93113,2.01743 -1.69468,3.98707 -2.2832,5.86914c-0.72681,-0.21861 -1.42803,-0.44836 -2.07031,-0.69922c-1.91015,-0.74606 -3.4211,-1.62951 -4.40039,-2.5332c-0.97929,-0.90369 -1.4043,-1.76551 -1.4043,-2.60156c0,-0.83605 0.42501,-1.69787 1.4043,-2.60156c0.97929,-0.90369 2.49024,-1.78714 4.40039,-2.5332c0.65075,-0.25417 1.36217,-0.486 2.09961,-0.70703zM25,20c-2.74952,0 -5,2.25048 -5,5c0,2.74952 2.25048,5 5,5c2.74952,0 5,-2.25048 5,-5c0,-2.74952 -2.25048,-5 -5,-5zM25,22c1.66848,0 3,1.33152 3,3c0,1.66848 -1.33152,3 -3,3c-1.66848,0 -3,-1.33152 -3,-3c0,-1.66848 1.33152,-3 3,-3zM34.61914,27.35938c0.58267,1.37864 1.07466,2.71965 1.48242,4.00977c-1.32384,0.31176 -2.74071,0.57234 -4.24023,0.76953c0.47548,-0.74399 0.94495,-1.50387 1.40039,-2.29102c0.0055,-0.0094 0.01212,-0.01595 0.01758,-0.02539l0.00781,-0.01172l0.00977,-0.01758c0.002,-0.0035 0.00386,-0.00627 0.00586,-0.00977l0.01367,-0.02734c0.46166,-0.80066 0.89006,-1.60019 1.30273,-2.39648zM15.33789,27.36914c0.41956,0.81034 0.85768,1.62258 1.32812,2.4375c0.46129,0.79907 0.93592,1.56961 1.41797,2.32422c-1.49245,-0.19803 -2.90319,-0.45792 -4.2207,-0.76953c0.40592,-1.28481 0.89512,-2.61924 1.47461,-3.99219zM13.30664,33.30664c1.92676,0.46179 4.02818,0.81038 6.26172,1.02734c1.29451,1.83364 2.63331,3.49384 3.98242,4.95508c-0.65513,0.63891 -1.30615,1.23748 -1.94141,1.75391c-1.62554,1.32147 -3.1654,2.21934 -4.44922,2.63477c-1.28382,0.41543 -2.23965,0.35825 -2.95312,-0.05469c-0.71372,-0.41298 -1.24048,-1.21559 -1.52148,-2.53711c-0.28101,-1.32152 -0.2726,-3.10599 0.06055,-5.17578c0.13236,-0.82237 0.32874,-1.70028 0.56055,-2.60352zM36.6582,33.31445c0.23362,0.90977 0.43158,1.79304 0.56445,2.62109c0.33227,2.07062 0.34132,3.85589 0.05859,5.17969c-0.28272,1.3238 -0.81441,2.13136 -1.53516,2.54688l-0.00195,0.00195h-0.00195c-0.72091,0.41479 -1.68704,0.46871 -2.97461,0.05078c-1.28839,-0.41827 -2.82981,-1.3185 -4.45703,-2.64258c-0.63427,-0.51611 -1.28365,-1.11411 -1.9375,-1.75195c1.35704,-1.46718 2.70377,-3.13638 4.00586,-4.98047c2.23969,-0.21528 4.3468,-0.56412 6.2793,-1.02539zM22.18359,34.52539c0.92495,0.04515 1.86046,0.07617 2.81641,0.07617c0.91934,0 1.82015,-0.02851 2.71094,-0.07031c-0.91417,1.20699 -1.83913,2.31254 -2.76367,3.31836c-0.92438,-1.00805 -1.8502,-2.1157 -2.76367,-3.32422z"></path></g></g></svg>